<svg xmlns="http://www.w3.org/2000/svg" viewBox="0 0 24 24" width="24" height="24">
  <path d="M12 3.6 L13.3 3.6 L13.9 6 L15.8 6.9 L18 5.6 L18.9 6.5 L17.6 8.7 L18.5 10.6 L20.9 11.2 L20.9 12.5 L18.5 13.1 L17.6 15 L18.9 17.2 L18 18.1 L15.8 16.8 L13.9 17.7 L13.3 20.1 L12 20.1 L11.4 17.7 L9.5 16.8 L7.3 18.1 L6.4 17.2 L7.7 15 L6.8 13.1 L4.4 12.5 L4.4 11.2 L6.8 10.6 L7.7 8.7 L6.4 6.5 L7.3 5.6 L9.5 6.9 L11.4 6 Z"
    fill="#3997FF" fill-opacity="0.2" stroke="#2F6FDE" stroke-width="1.4" stroke-linejoin="round"/>
  <circle cx="12.65" cy="11.85" r="3" fill="#FFFFFF" stroke="#2F6FDE" stroke-width="1.5"/>
</svg>
